<svg width="48" height="48" viewBox="0 0 48 48" xmlns="http://www.w3.org/2000/svg">
  <rect fill="#EF3939" width="48" height="48" rx="4"/>
  <path d="M17.707 18.13L24 19.476l6.293-1.348 3.793-8.536c.352-.792 1.476-.792 1.828 0l4 9c.15.34.1.734-.13 1.026l-15 19c-.4.507-1.17.507-1.57 0l-15-19c-.23-.292-.28-.687-.128-1.026l4-9c.352-.792 1.476-.792 1.828 0l3.793 8.535zM17.5 25c.828 0 1.5-.672 1.5-1.5s-.672-1.5-1.5-1.5-1.5.672-1.5 1.5.672 1.5 1.5 1.5zm13 0c.828 0 1.5-.672 1.5-1.5s-.672-1.5-1.5-1.5-1.5.672-1.5 1.5.672 1.5 1.5 1.5zM22 35l2 3 2-3c-.794-.667-1.46-1-2-1s-1.206.333-2 1zm-8.05-22.816c-.305-.912-1.595-.912-1.9 0l-1.5 4.5c-.215.647.267 1.316.95 1.316h3c.683 0 1.165-.67.95-1.316l-1.5-4.5zm22 0c-.305-.912-1.595-.912-1.9 0l-1.5 4.5c-.215.647.267 1.316.95 1.316h3c.683 0 1.165-.67.95-1.316l-1.5-4.5z" fill="#FFF"/>
</svg>
