<svg width="40" height="40" viewBox="0 0 40 40" xmlns="http://www.w3.org/2000/svg">
  <rect fill="#EF3939" width="40" height="40" rx="4"/>
  <path d="M34.91 18.63c0-.29-.09-.46-.09-.46s-.11.13-.3.38c-.06-.677-.184-1.346-.37-2-.237-.834-.552-1.644-.94-2.42-.245-.513-.532-1.005-.86-1.47L32 12.1c-.57-.93-1.23-1.5-2-2.58-.496-.827-.835-1.74-1-2.69-.21.572-.37 1.16-.48 1.76-.78-.79-1.46-1.35-1.87-1.73C24.65 5 24.88 4 24.88 4s-3.77 4.21-2.14 8.6c.565 1.487 1.54 2.783 2.81 3.74 1.58 1.3 3.28 2.33 4.18 5-.72-1.384-1.81-2.54-3.15-3.34.402.95.606 1.97.6 3 .013 2.182-.973 4.25-2.676 5.615C22.8 27.98 20.567 28.49 18.44 28c-.616-.115-1.212-.317-1.77-.6-.836-.515-1.557-1.196-2.12-2h.13c.294.1.595.182.9.24 1.21.258 2.472.11 3.59-.42 1.13-.63 1.81-1.09 2.37-.91.54.17 1-.35.58-.9-.678-.866-1.775-1.292-2.86-1.11-1.13.16-2.17 1-3.65.19l-.28-.16c-.1-.06.32.09.22 0-.323-.163-.634-.35-.93-.56 0 0 .22.07.2.05-.396-.264-.736-.604-1-1-.267-.48-.293-1.058-.07-1.56.137-.247.346-.446.6-.57l.31.17-.13-.24c.17.07.54.26.73.38.135.073.25.175.34.3 0 0 .07 0 0-.17-.07-.173-.193-.32-.35-.42.15.078.295.168.43.27.172-.265.28-.566.32-.88.013-.17-.01-.34-.07-.5-.05-.1 0-.14.12 0-.016-.083-.043-.164-.08-.24l.08-.09c.067-.067.14-.127.22-.18.468-.29.96-.54 1.47-.75l.83-.36c.103-.07.2-.146.29-.23.342-.295.575-.696.66-1.14.003-.06.003-.12 0-.18-.06-.23-.45-.39-2.48-.59-.715-.116-1.288-.654-1.45-1.36l-.08.23.08-.23c.39-1.014 1.09-1.878 2-2.47h-.16c.172-.086.35-.163.53-.23.09 0-.39-.22-.82-.18-.262.014-.52.075-.76.18.1-.09.4-.2.33-.2-.543.05-1.074.193-1.57.42-.01-.046-.01-.094 0-.14-.393.158-.738.416-1 .75.004-.057.004-.113 0-.17-.173.132-.33.283-.47.45-1.124-.436-2.35-.54-3.53-.3-.246-.2-.458-.435-.63-.7-.08-.11-.16-.24-.24-.39l-.18-.34s0 .11-.06.08c-.205-.54-.3-1.114-.28-1.69-.334.228-.587.558-.72.94-.06.14-.1.21-.14.29-.04.08 0-.21 0-.2-.1.112-.183.236-.25.37-.06.122-.11.25-.15.38v-.17c-.432.95-.706 1.962-.81 3-.016.18-.016.36 0 .54-.31.337-.585.706-.82 1.1-.787 1.327-1.373 2.762-1.74 4.26.244-.568.54-1.114.88-1.63-.676 1.758-1.016 3.627-1 5.51.118-.552.268-1.096.45-1.63-.113 2.233.316 4.46 1.25 6.49 1.26 2.818 3.354 5.18 6 6.77 1.07.726 2.244 1.29 3.48 1.67l.5.17-.15-.07c1.45.434 2.956.656 4.47.66 5.41 0 7.2-2.06 7.36-2.27.268-.242.485-.534.64-.86l.32-.14h.07l.12-.06c.814-.385 1.58-.865 2.28-1.43 1.054-.754 1.808-1.855 2.13-3.11.182-.46.182-.97 0-1.43l.17-.28c1.164-1.873 1.822-4.016 1.91-6.22v-.18c.012-.465-.018-.93-.09-1.39z" fill="#FFF"/>
</svg>
