<svg width="48" height="48" xmlns="http://www.w3.org/2000/svg">
  <rect fill="#EF3939" width="48" height="48" rx="4"/>
  <path d="M25.016 18C27.008 18 31 19 31 19c0-1 7.358-8 9.5-8 3 0 3.5 5.5.5 9 0 0-1.747 2.344-3.767 5.183-1.6 2.25-11.202 13.8-12.217 13.8-1.016 0-10.633-11.55-12.234-13.8C10.763 22.343 9.016 20 9.016 20c-3-3.5-2.5-9 .5-9 2.142 0 9.5 7 9.5 8 0 0 4.007-1 6-1zM18 26a2 2 0 1 0 0-4 2 2 0 0 0 0 4zm13 0a2 2 0 1 0 0-4 2 2 0 0 0 0 4zm-9 7.5l3 4 3-4c-1.46-1-2.46-1.5-3-1.5s-1.54.5-3 1.5z" fill="#FFF"/>
</svg>
