<svg width="40" height="40" viewBox="0 0 40 40" xmlns="http://www.w3.org/2000/svg">
  <rect fill="#EF3939"  width="40" height="40"></rect>
  <path d="M30.7478663,10.1248721 C30.6698663,10.0498721 30.6248663,10.0128721 30.6248663,10.0128721 C30.6658663,10.0448721 30.7068663,10.0818721 30.7478663,10.1248721 L30.7478663,10.1248721 Z M32.8748663,25.1268721 C32.8978663,24.9478721 32.8998663,24.7798721 32.8798663,24.6258721 C32.4518663,25.3588721 31.7948663,26.0248721 31.1788663,26.9048721 C31.9308663,26.4208721 32.5748663,25.8658721 32.8748663,25.1268721 L32.8748663,25.1268721 Z M34.0478663,17.9238721 C34.0328663,17.7468721 34.0128663,17.5698721 33.9868663,17.3938721 C33.9248663,16.9458721 33.8258663,16.5038721 33.6788663,16.0758721 C33.6858663,16.1018721 33.6918663,16.1288721 33.6978663,16.1548721 C33.6878663,16.1238721 33.6818663,16.1068721 33.6818663,16.1068721 C33.6818663,16.1068721 33.5648663,16.4718721 33.3858663,17.0698721 C33.3738663,18.2898721 33.2408663,19.4168721 33.0448663,20.2678721 C33.3698663,19.9618721 33.6078663,19.5988721 33.7708663,19.1958721 C33.6988663,19.4608721 33.5998663,19.7128721 33.4708663,19.9468721 C33.3118663,20.2168721 33.1328663,20.4358721 32.9598663,20.6098721 C32.7718663,20.7968721 32.5918663,20.9318721 32.4508663,21.0238721 C32.4938663,20.9048721 32.5358663,20.7728721 32.5758663,20.6308721 C32.5768663,20.6288721 32.5768663,20.6278721 32.5778663,20.6258721 C32.5878663,20.5898721 32.5978663,20.5518721 32.6078663,20.5128721 C32.7118663,20.1758721 32.8048663,19.8278721 32.8848663,19.4738721 C32.9998663,18.9608721 33.0878663,18.4328721 33.1428663,17.8978721 C33.2508663,16.8568721 33.2348663,15.7868721 33.0548663,14.7438721 C32.9658663,14.2268721 32.8368663,13.7168721 32.6628663,13.2198721 C32.4308663,12.5588721 32.1478663,12.0008721 31.8668663,11.5438721 C31.8458663,11.5078721 31.8248663,11.4718721 31.8038663,11.4358721 C31.7108663,11.2798721 31.6158663,11.1318721 31.5208663,10.9938721 C31.2088663,10.5428721 30.8898663,10.1998721 30.6248663,10.0128721 C30.6658663,10.0448721 30.7068663,10.0818721 30.7478663,10.1248721 C30.6698663,10.0498721 30.6248663,10.0128721 30.6248663,10.0128721 C30.6448663,10.0348721 30.6628663,10.0578721 30.6828663,10.0808721 C30.6328663,10.0328721 30.6038663,10.0078721 30.6038663,10.0078721 C30.6038663,10.0078721 30.6328663,10.1698721 30.6838663,10.4558721 C29.9198663,9.21787211 28.7578663,8.63487211 28.7578663,8.63487211 C28.7578663,8.63487211 28.8528663,8.94487211 29.0008663,9.39087211 C29.6918663,9.94887211 30.2958663,10.5708721 30.8198663,11.2268721 C30.8218663,11.2378721 30.8238663,11.2498721 30.8258663,11.2608721 C30.8558663,11.4348721 30.8888663,11.6238721 30.9238663,11.8258721 C30.8308663,11.6998721 30.7328663,11.5748721 30.6338663,11.4508721 C29.5398663,9.95787211 28.1618663,8.70587211 26.5618663,7.77887211 C26.5758663,7.78287211 26.5508663,7.77587211 26.5638663,7.77987211 C24.6228663,6.64687211 22.3798663,5.99987211 19.9898663,5.99987211 C16.4458663,5.99987211 13.2238663,7.42287211 10.8308663,9.74387211 C10.7648663,9.80887211 11.2218663,10.2698721 11.3548663,10.3108721 C12.0318663,10.1058721 12.7888663,10.0508721 13.3738663,10.1198721 C13.6558663,9.89687211 13.6138663,9.96287211 13.9118663,9.76887211 L13.9148663,9.77187211 C15.7178663,8.60587211 17.8048663,7.98187211 19.9858663,7.98187211 C21.9928663,7.98187211 23.9198663,8.50987211 25.6198663,9.50287211 C26.0688663,9.63487211 26.6338663,9.82987211 27.1328663,10.0908721 C26.6138663,9.18687211 26.0828663,8.55987211 25.7118663,8.18187211 C27.2618663,9.36387211 28.1008663,10.4248721 28.6518663,11.3958721 C28.6968663,11.4748721 28.7398663,11.5528721 28.7808663,11.6308721 C28.8788663,11.8158721 28.9678663,11.9978721 29.0498663,12.1768721 C28.5208663,11.6178721 27.7038663,11.0418721 26.9898663,10.7718721 C26.9318663,10.7498721 26.8748663,10.7298721 26.8188663,10.7118721 C26.6588663,10.6618721 26.5058663,10.6278721 26.3648663,10.6168721 C27.5008663,11.4878721 29.3578663,13.9778721 29.3828663,17.7438721 L29.3828663,17.8068721 C29.3828663,18.0098721 29.3788663,18.2158721 29.3678663,18.4268721 C29.1578663,17.9708721 28.8278663,17.3398721 28.5128663,16.8688721 C28.4338663,16.7508721 28.3558663,16.6438721 28.2808663,16.5508721 C28.2158663,16.4708721 28.1528663,16.3998721 28.0938663,16.3458721 C28.4298663,19.5168721 28.2748663,20.7498721 28.0668663,21.6508721 C28.0468663,21.7338721 28.0278663,21.8148721 28.0078663,21.8938721 C27.9658663,22.0578721 27.9238663,22.2158721 27.8848663,22.3778721 C27.8708663,22.2568721 27.8498663,22.1448721 27.8248663,22.0398721 C27.7668663,21.7908721 27.6858663,21.5848721 27.6168663,21.4238721 C27.5938663,21.3718721 27.5718663,21.3218721 27.5538663,21.2798721 C27.5538663,21.2798721 27.5318663,21.8538721 27.2758663,22.7798721 C27.1498663,23.2338721 26.9688663,23.7708721 26.7048663,24.3668721 C26.2448663,25.4078721 25.7738663,25.9028721 25.4518663,26.0618721 C25.3478663,26.1128721 25.2598663,26.1288721 25.1928663,26.1168721 C25.1178663,26.1118721 25.0768663,26.0788721 25.0778663,26.0758721 C25.0858663,26.0008721 25.0938663,25.9258721 25.0968663,25.8538721 C25.1008663,25.7538721 25.0958663,25.6618721 25.0698663,25.5928721 C25.0698663,25.5928721 24.8128663,25.6838721 24.6478663,25.9238721 C24.5808663,26.0198721 24.4948663,26.1148721 24.3818663,26.2028721 C24.3618663,26.2188721 24.5648663,25.9358721 24.5498663,25.9488721 C24.4498663,26.0328721 24.3428663,26.1298721 24.2358663,26.2448721 C24.1208663,26.3678721 24.0098663,26.4938721 23.9048663,26.6088721 C23.6498663,26.8868721 23.4338663,27.0948721 23.3028663,27.0008721 C23.3878663,26.9748721 23.4638663,26.9058721 23.5228663,26.8178721 C23.5858663,26.7258721 23.6308663,26.6128721 23.6498663,26.4998721 C23.4948663,26.6118721 23.1028663,26.9138721 22.2228663,27.0488721 C22.0598663,27.0738721 21.6578663,27.1458721 21.0778663,27.1208721 C20.3748663,27.0898721 19.4108663,26.9158721 18.2958663,26.3408721 C18.5288663,26.3128721 18.8538663,26.2408721 19.1468663,26.3118721 C19.2258663,26.3308721 19.3028663,26.3598721 19.3748663,26.4048721 C19.3428663,26.3688721 19.3058663,26.3378721 19.2658663,26.3098721 C18.8838663,26.0368721 18.1628663,26.0838721 17.6318663,25.9108721 C17.1208663,25.7438721 16.4538663,25.0048721 16.0698663,24.6308721 C16.2138663,24.6668721 16.3578663,24.6958721 16.5018663,24.7208721 C16.6028663,24.7378721 16.7028663,24.7528721 16.8028663,24.7648721 C16.9588663,24.7838721 17.1148663,24.7978721 17.2698663,24.8048721 C18.4368663,24.8558721 19.5458663,24.5688721 20.2638663,24.0628721 C21.2358663,23.3768721 21.8118663,22.8758721 22.3288663,22.9938721 C22.3788663,23.0058721 22.4268663,23.0098721 22.4728663,23.0098721 C22.4938663,23.0098721 22.5138663,23.0088721 22.5338663,23.0068721 C22.8178663,22.9748721 23.0038663,22.7298721 22.9528663,22.4408721 C22.9338663,22.3318721 22.8818663,22.2168721 22.7868663,22.1038721 C22.5118663,21.7778721 21.9668663,21.3748721 21.2248663,21.2648721 C20.8858663,21.2148721 20.5068663,21.2258721 20.0928663,21.3328721 C19.3358663,21.5278721 18.6618663,22.0468721 17.7748663,22.0508721 C17.4768663,22.0528721 17.1548663,21.9958721 16.7968663,21.8498721 C16.7098663,21.8148721 16.6218663,21.7738721 16.5308663,21.7278721 C16.4398663,21.6808721 16.8278663,21.7828721 16.7318663,21.7248721 C16.4588663,21.6208721 15.9618663,21.3858721 15.8388663,21.2968721 C15.8188663,21.2818721 16.0448663,21.3388721 16.0208663,21.3238721 C14.6718663,20.5008721 14.7598663,19.8418721 14.7598663,19.4348721 C14.7598663,19.2698721 14.8088663,19.0768721 14.9038663,18.8988721 C14.9968663,18.7228721 15.1338663,18.5628721 15.3128663,18.4608721 C15.4258663,18.5018721 15.5128663,18.5408721 15.5668663,18.5668721 C15.6058663,18.5858721 15.6278663,18.5978721 15.6278663,18.5978721 C15.6278663,18.5978721 15.6148663,18.5758721 15.5948663,18.5458721 C15.5638663,18.4988721 15.5158663,18.4278721 15.4808663,18.3858721 C15.4948663,18.3808721 15.5078663,18.3768721 15.5218663,18.3728721 C15.6158663,18.4058721 15.7798663,18.4678721 15.9358663,18.5318721 C16.0428663,18.5758721 16.1458663,18.6208721 16.2188663,18.6588721 C16.4648663,18.7858721 16.5468663,18.9158721 16.5468663,18.9158721 C16.5468663,18.9158721 16.6048663,18.8788721 16.5448663,18.7488721 C16.5338663,18.7258721 16.5108663,18.6828721 16.4698663,18.6298721 C16.4158663,18.5608721 16.3288663,18.4728721 16.1898663,18.3858721 C16.1948663,18.3858721 16.1988663,18.3848721 16.2018663,18.3848721 C16.3298663,18.4368721 16.4648663,18.5028721 16.6138663,18.5898721 C16.6208663,18.5548721 16.6298663,18.5198721 16.6378663,18.4838721 C16.6388663,18.4788721 16.6408663,18.4748721 16.6418663,18.4698721 C16.6438663,18.4618721 16.6458663,18.4538721 16.6478663,18.4458721 C16.6548663,18.4158721 16.6618663,18.3848721 16.6688663,18.3538721 C16.6808663,18.3008721 16.6908663,18.2448721 16.6988663,18.1848721 C16.7148663,18.0578721 16.7188663,17.9128721 16.6908663,17.7308721 C16.6458663,17.4458721 16.6518663,17.3728721 16.5828663,17.2688721 C16.5238663,17.1808721 16.5988663,17.1418721 16.6908663,17.2208721 C16.6688663,17.1508721 16.6378663,17.0808721 16.6008663,17.0098721 C16.6008663,17.0088721 16.6018663,17.0088721 16.6018663,17.0068721 C16.6098663,16.9678721 16.6438663,16.9188721 16.6958663,16.8638721 C16.7088663,16.8488721 16.7248663,16.8338721 16.7408663,16.8178721 C16.7558663,16.8028721 16.7718663,16.7888721 16.7898663,16.7728721 C17.3098663,16.3128721 18.7328663,15.5388721 18.8588663,15.4428721 C19.0688663,15.2828721 19.2828663,15.0348721 19.4168663,14.7498721 C19.4588663,14.6718721 19.4948663,14.5778721 19.5218663,14.4678721 C19.5568663,14.3228721 19.5758663,14.1488721 19.5648663,13.9368721 C19.5568663,13.7638721 19.4878663,13.6338721 18.8678663,13.5678721 C18.5348663,13.5328721 18.0418663,13.5158721 17.3128663,13.5208721 L17.2328663,13.5208721 C16.6408663,13.5258721 16.2558663,13.1708721 16.0238663,12.8328721 C15.9758663,12.7588721 15.9348663,12.6888721 15.8968663,12.6258721 C15.8458663,12.5318721 15.8118663,12.4478721 15.7848663,12.3808721 C15.8678663,12.0698721 15.9788663,11.7718721 16.1158663,11.4888721 C16.4068663,10.8898721 16.8218663,10.3548721 17.3698663,9.89287211 C17.4188663,9.84987211 17.1768663,9.92087211 17.2228663,9.87687211 C17.2778663,9.82387211 17.6198663,9.65487211 17.6838663,9.61787211 C17.7228663,9.59487211 17.6428663,9.55587211 17.5078663,9.52787211 C17.4998663,9.52687211 17.4918663,9.52487211 17.4828663,9.52387211 C17.3308663,9.49587211 17.1178663,9.48487211 16.9228663,9.52687211 C16.5318663,9.60987211 16.4558663,9.65787211 16.2538663,9.76487211 C16.3358663,9.67787211 16.6008663,9.53987211 16.5358663,9.55387211 C16.1118663,9.65187211 15.6118663,9.93987211 15.1858663,10.2508721 C15.1818663,10.2108721 15.1858663,10.1788721 15.1938663,10.1158721 C14.9928663,10.2228721 14.5078663,10.6088721 14.3838663,10.9028721 C14.3838663,10.8388721 14.3838663,10.8068721 14.3758663,10.7358721 C14.2498663,10.8558721 14.1278663,10.9958721 14.0158663,11.1508721 C14.0058663,11.1648721 13.9948663,11.1778721 13.9848663,11.1918721 C13.9838663,11.1948721 13.9818663,11.1968721 13.9798663,11.1988721 C13.6418663,11.1118721 13.3178663,11.0548721 13.0068663,11.0228721 C12.2558663,10.9438721 11.5818663,11.0118721 10.9828663,11.1778721 C10.9018663,11.2008721 10.8218663,11.2238721 10.7438663,11.2498721 C10.5298663,11.0888721 10.1858663,10.8428721 9.64286629,9.97787211 C9.60986629,9.92587211 9.60686629,10.0968721 9.57686629,10.0418721 C9.41886629,9.74787211 9.27786629,9.29987211 9.20886629,8.89187211 C9.18486629,8.74987211 9.16886629,8.61287211 9.16486629,8.48887211 C9.16486629,8.48887211 9.00086629,8.58787211 8.82386629,8.88887211 C8.75686629,9.00287211 8.68786629,9.14587211 8.62586629,9.32387211 C8.61286629,9.36087211 8.59986629,9.39887211 8.58786629,9.43887211 C8.54686629,9.56987211 8.51886629,9.64787211 8.48986629,9.71987211 C8.48086629,9.74187211 8.50686629,9.48187211 8.49686629,9.50187211 C8.48086629,9.53687211 8.45286629,9.57887211 8.42286629,9.62687211 C8.38186629,9.69187211 8.33586629,9.76887211 8.30686629,9.85087211 C8.29986629,9.86987211 8.29386629,9.88887211 8.28886629,9.90887211 C8.25886629,10.0338721 8.20986629,10.1098721 8.18986629,10.2658721 C8.18886629,10.2698721 8.18786629,10.2728721 8.18586629,10.2758721 C8.18486629,10.2608721 8.18386629,10.2298721 8.18186629,10.1998721 C8.17986629,10.1518721 8.17586629,10.1048721 8.16886629,10.1228721 C8.06886629,10.3968721 7.97486629,10.7118721 7.89886629,11.0668721 C7.78886629,11.6278721 7.67686629,12.3948721 7.74386629,13.3678721 C7.74286629,13.4028721 7.74586629,13.4378721 7.74786629,13.4718721 C7.75086629,13.5138721 7.75386629,13.5548721 7.75286629,13.5938721 C7.41186629,14.0778721 7.18986629,14.4938721 7.10386629,14.6988721 C7.01686629,14.8728721 6.92986629,15.0678721 6.84386629,15.2838721 C6.51486629,16.1018721 6.19186629,17.2338721 5.91986629,18.8128721 C5.91986629,18.8128721 6.15086629,18.0608721 6.61186629,17.2098721 C6.27186629,18.2818721 6.00586629,19.9498721 6.16186629,22.4518721 C6.16586629,22.3968721 6.19886629,22.1008721 6.27286629,21.6598721 C6.31086629,21.4348721 6.35886629,21.1728721 6.42086629,20.8848721 C6.42386629,20.9498721 6.42786629,21.0148721 6.43286629,21.0808721 C6.44786629,21.3148721 6.46986629,21.5558721 6.49886629,21.8028721 C6.51586629,21.9488721 6.53586629,22.0968721 6.55786629,22.2478721 C6.76486629,23.6168721 7.21586629,25.1658721 8.14786629,26.8108721 C9.10486629,28.5018721 11.6268663,32.4298721 17.9558663,33.8998721 C17.7768663,33.8468721 17.6158663,33.7798721 17.4748663,33.7098721 C17.0678663,33.5078721 16.8298663,33.2798721 16.8298663,33.2798721 C16.8298663,33.2798721 17.0308663,33.3458721 17.3578663,33.4388721 C18.0318663,33.6298721 19.2408663,33.9308721 20.3388663,33.9898721 C20.5368663,33.9998721 20.7318663,34.0038721 20.9188663,33.9958721 C20.3788663,33.8998721 20.2708663,33.6308721 20.2708663,33.6308721 C20.2708663,33.6308721 25.1838663,33.9168721 27.7358663,31.8368721 C27.7858663,31.7958721 27.8358663,31.7538721 27.8848663,31.7108721 C27.8888663,31.7088721 27.8918663,31.7078721 27.8958663,31.7058721 C28.2778663,31.3788721 28.5568663,31.0208721 28.7058663,30.6748721 C28.5868663,30.7338721 28.4688663,30.7888721 28.3538663,30.8408721 C27.9758663,31.2508721 27.5148663,31.5858721 27.0058663,31.8598721 C26.5408663,31.9958721 26.0688663,32.0718721 25.6998663,32.1078721 C25.5318663,32.1238721 25.3848663,32.1318721 25.2698663,32.1328721 C25.5448663,31.8718721 25.9078663,31.6808721 26.3378663,31.4948721 C26.9748663,31.2188721 27.7618663,30.9548721 28.6338663,30.4958721 C28.6358663,30.4948721 28.6378663,30.4938721 28.6398663,30.4928721 C28.6918663,30.4658721 28.7438663,30.4368721 28.7958663,30.4088721 C29.5488663,29.9958721 30.3608663,29.4318721 31.1948663,28.5848721 C31.9888663,27.7788721 32.3778663,27.0828721 32.5938663,26.4478721 C32.6538663,26.2698721 32.7008663,26.0968721 32.7388663,25.9278721 C32.8028663,25.6448721 32.8438663,25.3718721 32.8848663,25.1038721 L32.8848663,25.0998721 C32.8848663,25.1018721 32.8838663,25.1028721 32.8838663,25.1048721 C32.8768663,25.1438721 32.8688663,25.1828721 32.8608663,25.2208721 C32.6218663,26.2668721 31.7478663,26.9718721 30.7448663,27.5848721 C30.5588663,27.6978721 30.3678663,27.8078721 30.1768663,27.9168721 C30.2898663,27.6958721 30.4098663,27.4908721 30.5328663,27.2938721 C30.5368663,27.2888721 30.5398663,27.2838721 30.5428663,27.2788721 C30.5408663,27.2838721 30.5388663,27.2878721 30.5368663,27.2928721 C30.5238663,27.3188721 30.5118663,27.3438721 30.5008663,27.3668721 C30.5178663,27.3388721 30.5358663,27.3108721 30.5538663,27.2828721 C30.7488663,26.9728721 30.9628663,26.6688721 31.1828663,26.3718721 C31.7108663,25.6888721 32.2288663,25.1178721 32.5718663,24.4898721 C32.6228663,24.3968721 32.6768663,24.2918721 32.7328663,24.1768721 C32.7538663,24.1338721 32.7758663,24.0898721 32.7968663,24.0428721 C33.1708663,23.2918721 33.5578663,22.2668721 33.8078663,21.1198721 C33.9198663,20.6058721 34.0038663,20.0668721 34.0478663,19.5168721 C34.0888663,18.9918721 34.0928663,18.4568721 34.0478663,17.9238721 L34.0478663,17.9238721 Z" id="Shape" fill="#FFFFFF"></path>
</svg>